<svg width="70" height="50" viewBox="0 0 70 50" fill="none" xmlns="http://www.w3.org/2000/svg">
<path d="M41.4742 17.5511V13.1666C43.2862 12.3247 45.1826 11.6933 47.1633 11.2724C49.1441 10.8514 51.2007 10.641 53.3332 10.641C54.6708 10.641 55.9699 10.736 57.2306 10.9262C58.4913 11.1164 59.7562 11.3674 61.0255 11.6794V15.8588C59.7776 15.4229 58.5372 15.1067 57.3043 14.9101C56.0714 14.7135 54.7477 14.6152 53.3332 14.6152C51.2007 14.6152 49.1356 14.8684 47.1377 15.3748C45.1398 15.8813 43.252 16.6067 41.4742 17.5511ZM41.4742 35.8204V31.3717C43.2435 30.5298 45.1345 29.8984 47.1473 29.4775C49.1601 29.0565 51.2221 28.8461 53.3332 28.8461C54.6708 28.8461 55.9699 28.9412 57.2306 29.1313C58.4913 29.3215 59.7562 29.5726 61.0255 29.8845V34.0639C59.7776 33.628 58.5372 33.3118 57.3043 33.1152C56.0714 32.9186 54.7477 32.8204 53.3332 32.8204C51.2007 32.8204 49.1356 33.0757 47.1377 33.5864C45.1398 34.0971 43.252 34.8417 41.4742 35.8204ZM41.4742 26.7178V22.2692C43.2862 21.4273 45.1826 20.7959 47.1633 20.3749C49.1441 19.954 51.2007 19.7435 53.3332 19.7435C54.6708 19.7435 55.9699 19.8386 57.2306 20.0288C58.4913 20.2189 59.7562 20.47 61.0255 20.782V24.9614C59.7776 24.5255 58.5372 24.2092 57.3043 24.0127C56.0714 23.8161 54.7477 23.7178 53.3332 23.7178C51.2007 23.7178 49.1356 23.9817 47.1377 24.5095C45.1398 25.0372 43.252 25.7733 41.4742 26.7178ZM37.4998 42.3461C40.0725 41.0084 42.6644 40.0266 45.2755 39.4005C47.8866 38.7745 50.5725 38.4614 53.3332 38.4614C55.3332 38.4614 57.2114 38.6067 58.9678 38.8973C60.7242 39.1879 62.393 39.6024 63.9742 40.1409C64.2306 40.2477 64.4657 40.2317 64.6793 40.0928C64.893 39.9539 64.9999 39.7349 64.9999 39.4357V7.91018C64.9999 7.71785 64.9464 7.5469 64.8396 7.39732C64.7328 7.24773 64.5511 7.11952 64.2947 7.01267C62.4614 6.299 60.6761 5.78512 58.939 5.47102C57.2018 5.15693 55.3332 4.99988 53.3332 4.99988C50.5725 4.99988 47.8289 5.38129 45.1024 6.14412C42.3759 6.90695 39.8417 8.05119 37.4998 9.57684V42.3461ZM34.9999 49.6792C32.3118 47.6963 29.4123 46.1643 26.3012 45.0831C23.19 44.0019 19.9785 43.4613 16.6665 43.4613C14.6324 43.4613 12.6345 43.6867 10.673 44.1376C8.7115 44.5884 6.8205 45.2519 5 46.1279C3.81196 46.6749 2.68162 46.5884 1.60897 45.8683C0.536324 45.1482 0 44.1279 0 42.8074V6.61536C0 5.8974 0.184831 5.22325 0.554494 4.5929C0.924157 3.96255 1.45728 3.50849 2.15387 3.23071C4.44444 2.16663 6.80446 1.36215 9.23393 0.817291C11.6634 0.27243 14.1409 0 16.6665 0C19.9101 0 23.0789 0.443378 26.173 1.33013C29.267 2.21689 32.2093 3.52566 34.9999 5.25643C37.7905 3.52566 40.7328 2.21689 43.8268 1.33013C46.9208 0.443378 50.0896 0 53.3332 0C55.8588 0 58.3364 0.27243 60.7658 0.817291C63.1953 1.36215 65.5553 2.16663 67.8459 3.23071C68.5425 3.50849 69.0756 3.96255 69.4453 4.5929C69.8149 5.22325 69.9998 5.8974 69.9998 6.61536V42.8074C69.9998 44.1279 69.4421 45.1375 68.3267 45.8362C67.2113 46.5349 66.0382 46.6108 64.8074 46.0638C63.0083 45.2091 61.144 44.5617 59.2146 44.1215C57.2851 43.6814 55.3246 43.4613 53.3332 43.4613C50.0212 43.4613 46.8097 44.0019 43.6986 45.0831C40.5875 46.1643 37.6879 47.6963 34.9999 49.6792Z" fill="#352676" fill-opacity="0.8"/>
</svg>
